<svg width="375" height="809" viewBox="0 0 375 809" fill="none" xmlns="http://www.w3.org/2000/svg">
<g opacity="0.66" filter="url(#filter0_f_326_1296)">
<path d="M-363.728 442.891L261.843 -34.3819L415.667 -123.192L264.483 348.42L-247.582 644.061L-363.728 442.891Z" fill="url(#paint0_linear_326_1296)"/>
</g>
<g opacity="0.92" filter="url(#filter1_f_326_1296)" style="mix-blend-mode:color-dodge">
<path d="M-264.827 433.185L419.787 -52.6026L827.85 -208.502L374.144 273.417L-174.266 590.041L-264.827 433.185Z" fill="url(#paint1_linear_326_1296)"/>
</g>
<path fill-rule="evenodd" clip-rule="evenodd" d="M457.869 -58.9826C457.869 -64.6101 453.307 -69.2123 447.68 -69.262L344.581 -70.1723C341.988 -70.1952 339.493 -69.2289 337.603 -67.4702L189.195 70.6729C185.273 74.3233 179.162 74.2693 175.241 70.5497L26.8322 -70.2141C24.9428 -72.0062 22.4477 -73.0165 19.8551 -73.0394L-80.464 -73.9252C-86.0912 -73.9749 -90.653 -69.4532 -90.653 -63.8257L-90.653 34.553C-90.653 37.3655 -89.4906 40.0631 -87.441 42.0071L56.9265 178.938C61.209 183 61.2091 189.803 56.9266 193.789L-87.4411 328.174C-89.4906 330.082 -90.653 332.759 -90.653 335.571L-90.653 431.216C-90.653 436.844 -86.0912 441.446 -80.464 441.495L22.768 442.407C25.3607 442.43 27.8558 441.464 29.7452 439.705L175.241 304.27C179.162 300.62 185.273 300.674 189.195 304.393L334.691 442.397C336.58 444.189 339.075 445.2 341.668 445.223L447.68 446.159C453.307 446.208 457.869 441.687 457.869 436.059L457.869 343.027C457.869 340.215 456.707 337.517 454.657 335.573L307.509 196.002C303.227 191.94 303.227 185.137 307.509 181.15L454.657 44.1808C456.707 42.273 457.869 39.5959 457.869 36.7834L457.869 -58.9826Z" stroke="none"/>
<g filter="url(#filter2_f_326_1296)" style="mix-blend-mode:lighten">
<ellipse cx="403.963" cy="148.909" rx="185.697" ry="141.909" fill="#00ACFF"/>
</g>
<g filter="url(#filter3_f_326_1296)" style="mix-blend-mode:lighten">
<ellipse cx="41.9864" cy="727.091" rx="185.697" ry="141.909" fill="#00ACFF"/>
</g>
<g filter="url(#filter4_f_326_1296)">
<ellipse cx="761.646" cy="406.345" rx="304.343" ry="272.504" transform="rotate(-149.151 761.646 406.345)" fill="#1565C5"/>
</g>
<defs>
<filter id="filter0_f_326_1296" x="-500.338" y="-259.802" width="1052.61" height="1040.47" filterUnits="userSpaceOnUse" color-interpolation-filters="sRGB">
<feFlood flood-opacity="0" result="BackgroundImageFix"/>
<feBlend mode="normal" in="SourceGraphic" in2="BackgroundImageFix" result="shape"/>
<feGaussianBlur stdDeviation="68.3051" result="effect1_foregroundBlur_326_1296"/>
</filter>
<filter id="filter1_f_326_1296" x="-304.49" y="-248.165" width="1172" height="877.87" filterUnits="userSpaceOnUse" color-interpolation-filters="sRGB">
<feFlood flood-opacity="0" result="BackgroundImageFix"/>
<feBlend mode="normal" in="SourceGraphic" in2="BackgroundImageFix" result="shape"/>
<feGaussianBlur stdDeviation="19.8316" result="effect1_foregroundBlur_326_1296"/>
</filter>
<filter id="filter2_f_326_1296" x="-10.989" y="-222.255" width="829.904" height="742.329" filterUnits="userSpaceOnUse" color-interpolation-filters="sRGB">
<feFlood flood-opacity="0" result="BackgroundImageFix"/>
<feBlend mode="normal" in="SourceGraphic" in2="BackgroundImageFix" result="shape"/>
<feGaussianBlur stdDeviation="114.628" result="effect1_foregroundBlur_326_1296"/>
</filter>
<filter id="filter3_f_326_1296" x="-372.966" y="355.927" width="829.904" height="742.329" filterUnits="userSpaceOnUse" color-interpolation-filters="sRGB">
<feFlood flood-opacity="0" result="BackgroundImageFix"/>
<feBlend mode="normal" in="SourceGraphic" in2="BackgroundImageFix" result="shape"/>
<feGaussianBlur stdDeviation="114.628" result="effect1_foregroundBlur_326_1296"/>
</filter>
<filter id="filter4_f_326_1296" x="145.833" y="-194.361" width="1231.62" height="1201.41" filterUnits="userSpaceOnUse" color-interpolation-filters="sRGB">
<feFlood flood-opacity="0" result="BackgroundImageFix"/>
<feBlend mode="normal" in="SourceGraphic" in2="BackgroundImageFix" result="shape"/>
<feGaussianBlur stdDeviation="159.726" result="effect1_foregroundBlur_326_1296"/>
</filter>
<linearGradient id="paint0_linear_326_1296" x1="411.393" y1="-162.214" x2="158.47" y2="641.145" gradientUnits="userSpaceOnUse">
<stop stop-color="#1129C2"/>
<stop offset="1" stop-color="#291C72" stop-opacity="0"/>
</linearGradient>
<linearGradient id="paint1_linear_326_1296" x1="585.183" y1="-180.445" x2="473.437" y2="572.277" gradientUnits="userSpaceOnUse">
<stop stop-color="#8E74FF"/>
<stop offset="1" stop-color="#13007E" stop-opacity="0"/>
</linearGradient>
</defs>
</svg>
