<svg width="20" height="20" viewBox="0 0 20 20" fill="none" xmlns="http://www.w3.org/2000/svg">
<path fill-rule="evenodd" clip-rule="evenodd" d="M9.79627 5.15058L6.27549 8.72844L16.7818 8.77777C16.9425 8.77839 17.1015 8.81154 17.2497 8.87535C17.3979 8.93915 17.5324 9.03235 17.6455 9.14962C17.7586 9.26689 17.8482 9.40593 17.909 9.55879C17.9698 9.71164 18.0007 9.87533 18 10.0405C17.9992 10.2057 17.9668 10.3691 17.9046 10.5214C17.8424 10.6738 17.7517 10.812 17.6375 10.9283C17.5233 11.0446 17.388 11.1366 17.2392 11.1991C17.0904 11.2616 16.9311 11.2934 16.7704 11.2926L6.26635 11.2433L9.74028 14.8564C9.85354 14.9737 9.94321 15.1127 10.0042 15.2656C10.0651 15.4186 10.0962 15.5823 10.0955 15.7476C10.0949 15.9128 10.0626 16.0764 10.0005 16.2288C9.93832 16.3812 9.84758 16.5195 9.73342 16.6359C9.50267 16.8706 9.19074 17.0015 8.86614 17C8.54153 16.9984 8.2308 16.8645 8.00217 16.6277L2.28848 10.6971C2.10165 10.5019 1.99789 10.2384 2.00003 9.96463C2.00218 9.69082 2.11004 9.4291 2.29991 9.23704L8.07416 3.364C8.30471 3.12939 8.61645 2.99847 8.94087 3.00001C9.26529 3.00156 9.57584 3.13543 9.80427 3.37223C10.0325 3.60921 10.1599 3.92964 10.1584 4.26311C10.1569 4.59657 10.0266 4.91578 9.79627 5.15058Z" fill="#484848"/>
</svg>
